<svg version="1.1" id="Layer_1" xmlns="http://www.w3.org/2000/svg" xmlns:xlink="http://www.w3.org/1999/xlink" x="0px" y="0px"
	 width="100%" viewBox="0 0 1263 1060" enable-background="new 0 0 1263 1060" xml:space="preserve">
<path fill="#FFFFFF" opacity="1.000000" stroke="none" 
	d="
M535.000000,1061.000000 
	C357.072418,1061.000000 179.144867,1061.000000 1.000000,1061.000000 
	C1.000000,890.975159 1.000000,720.950256 1.385960,550.625854 
	C3.414938,571.119080 12.396880,588.626221 26.308424,603.692871 
	C35.254639,613.381958 46.186543,620.334167 58.520039,625.194031 
	C74.223534,631.381775 90.403015,633.588135 107.000046,630.860413 
	C121.680176,628.447632 135.241318,622.872314 147.302826,613.961975 
	C159.519043,604.937317 169.001038,593.517517 175.484116,579.890869 
	C183.618332,562.793823 185.796463,544.694031 183.043976,525.920288 
	C180.269669,506.997864 172.209000,490.630127 159.197784,476.852936 
	C150.543869,467.689606 140.246872,460.716705 128.477142,455.693787 
	C110.461281,448.005249 91.821388,446.963257 73.120094,450.622864 
	C53.725422,454.418182 37.259731,464.142426 24.105864,479.289368 
	C15.131810,489.623169 8.055175,500.826385 4.924708,514.296204 
	C3.703452,519.551025 2.313252,524.766541 1.000002,530.000000 
	C1.000000,353.737061 1.000000,177.474152 1.000000,1.000000 
	C179.358185,1.000000 357.716431,1.000000 536.314087,1.367113 
	C521.643250,3.152233 506.655212,4.024687 491.843903,6.136641 
	C475.989777,8.397294 460.199402,11.363882 444.563568,14.842165 
	C413.656097,21.717705 383.861694,32.035873 354.749054,44.528488 
	C330.076019,55.116009 306.225250,67.304794 283.862915,81.999374 
	C264.426758,94.771149 245.563873,108.594887 227.562759,123.317207 
	C211.631668,136.346542 196.569412,150.617126 182.350357,165.510941 
	C167.922867,180.623093 154.603226,196.853043 141.513962,213.167542 
	C125.057480,233.678925 111.363052,256.103241 99.000298,279.279358 
	C87.326828,301.163269 76.941772,323.648163 68.420494,346.999176 
	C59.060047,372.649780 51.562805,398.776825 45.991524,426.350128 
	C86.514107,410.890930 124.570732,415.056244 160.790588,437.825012 
	C163.520889,428.123993 165.940994,418.797516 168.772903,409.597778 
	C177.775055,380.353119 189.771790,352.431396 204.951935,325.797119 
	C223.407913,293.415314 245.987793,264.253845 271.958588,237.665512 
	C278.647156,230.817947 285.869568,224.434601 293.269165,218.351898 
	C305.063324,208.656708 316.928131,199.001755 329.277374,190.038376 
	C347.362030,176.912094 366.707275,165.755325 387.078094,156.554810 
	C401.102264,150.220779 415.260925,144.079498 429.711609,138.819458 
	C451.106262,131.031830 473.174164,125.638664 495.673859,121.846802 
	C518.010620,118.082397 540.412598,115.686844 563.066589,116.030022 
	C573.340881,116.185654 583.647034,116.231590 593.873352,117.098900 
	C609.258240,118.403732 624.732117,119.566193 639.903076,122.273964 
	C662.276855,126.267319 684.222107,132.202591 705.666138,139.959579 
	C736.368896,151.065704 765.660461,165.087738 792.628662,183.412842 
	C809.162231,194.647491 825.155823,206.895569 840.179932,220.070694 
	C854.992065,233.059814 869.185425,247.014008 881.976074,261.976044 
	C894.827637,277.009216 906.435913,293.284576 917.065369,309.985321 
	C926.817078,325.307098 934.537476,341.921753 943.017090,358.283417 
	C936.782837,365.709747 930.585144,372.737183 924.605469,379.945526 
	C910.582458,396.849701 896.716370,413.884155 882.685669,430.781921 
	C872.094788,443.536926 861.299438,456.122009 850.682983,468.855927 
	C839.555054,482.203217 828.558716,495.660034 817.454224,509.026917 
	C808.855591,519.377502 800.135254,529.627014 791.547913,539.986816 
	C780.669739,553.110474 769.903870,566.327087 759.027405,579.452148 
	C751.798706,588.175293 744.413757,596.768921 737.184204,605.491333 
	C727.985229,616.589722 718.872742,627.759705 709.769226,638.842285 
	C705.790466,635.352173 701.840210,632.103333 698.136108,628.594666 
	C689.219727,620.148865 680.421875,611.578125 671.570374,603.063843 
	C654.107483,586.266235 636.639221,569.474304 619.176025,552.677124 
	C610.324341,544.163025 601.438110,535.684265 592.639465,527.115601 
	C577.275085,512.152893 562.013855,497.083862 546.608398,482.163696 
	C541.186768,476.912842 535.468689,471.968109 529.995789,466.983643 
	C519.284668,482.300140 508.660614,497.315979 498.220367,512.458496 
	C477.423187,542.622742 456.754150,572.875244 435.979584,603.055054 
	C422.123779,623.183838 408.141113,643.225220 394.279266,663.349854 
	C373.493652,693.526428 352.755981,723.736084 332.014343,753.942932 
	C320.840363,770.216125 309.700562,786.512756 298.259186,803.216553 
	C260.133606,742.778687 222.317200,682.830933 184.072571,622.204285 
	C171.925522,635.930115 157.766541,646.024841 141.437012,652.997681 
	C125.082451,659.981018 107.951691,663.313171 89.285522,663.130737 
	C157.927475,771.961365 226.035202,879.945007 294.251312,988.100525 
	C295.214081,987.183960 296.068024,986.612427 296.603973,985.824585 
	C304.202454,974.654968 311.668365,963.394165 319.343597,952.277832 
	C332.397430,933.371521 345.659149,914.608643 358.683868,895.682495 
	C379.543945,865.370850 400.232178,834.940918 421.088654,804.626770 
	C434.850647,784.624207 448.850464,764.785217 462.618286,744.786499 
	C483.485413,714.475464 504.231995,684.081482 525.054138,653.739502 
	C531.923645,643.729248 538.868164,633.770569 545.884399,623.635132 
	C560.005737,636.993347 573.746155,649.944336 587.431152,662.953613 
	C596.091125,671.185913 604.672791,679.500610 613.282104,687.786072 
	C631.220947,705.050171 649.201965,722.270874 667.076538,739.601196 
	C682.473877,754.529724 697.731873,769.601868 713.101990,784.558594 
	C714.577026,785.993958 716.410400,787.061157 718.082031,788.302673 
	C727.252075,777.367676 736.132324,766.838501 744.944885,756.252869 
	C754.067932,745.294006 763.100952,734.260071 772.219421,723.297302 
	C779.358154,714.714783 786.601990,706.219666 793.736206,697.633484 
	C803.058350,686.414001 812.297302,675.125366 821.612183,663.899780 
	C828.634766,655.436707 835.747375,647.048340 842.771240,638.586365 
	C852.087891,627.362122 861.325500,616.072327 870.656799,604.860413 
	C878.010071,596.025085 885.509033,587.310852 892.843994,578.460632 
	C903.403748,565.719360 913.828186,552.865845 924.397095,540.132202 
	C931.738586,531.286987 939.272339,522.601624 946.636414,513.775024 
	C957.104675,501.227631 967.496094,488.616089 977.952881,476.475342 
	C978.989990,487.400391 980.687561,497.871918 980.841614,508.366058 
	C981.092590,525.462830 980.736694,542.594788 979.866577,559.672668 
	C979.257446,571.626892 977.523438,583.535950 976.010132,595.429260 
	C973.400330,615.939941 968.259766,635.890015 962.144653,655.602722 
	C952.971802,685.171997 940.668030,713.415833 924.898376,740.022766 
	C904.059937,775.181946 879.486572,807.485413 848.722107,834.675598 
	C837.010681,845.026367 825.101074,855.214905 812.680237,864.688660 
	C780.093750,889.543518 744.234741,908.472961 705.603333,922.147095 
	C683.196106,930.078430 660.395020,936.360779 636.875366,940.232910 
	C618.490784,943.259583 600.117859,945.819519 581.473389,945.979187 
	C568.762695,946.088074 556.050415,946.000427 543.338806,945.999207 
	C542.172241,945.999084 540.988098,946.117981 539.841797,945.962463 
	C522.943176,943.669067 506.014404,941.566101 489.162964,938.963623 
	C463.658600,935.024780 439.175720,927.287659 415.176941,917.995239 
	C405.761566,914.349548 396.544586,910.191589 387.211487,906.256042 
	C365.257507,938.038391 343.484650,969.558594 321.571198,1001.282349 
	C322.971130,1002.187256 323.876801,1002.875610 324.869354,1003.399170 
	C347.089661,1015.121033 370.108795,1025.017822 393.912354,1033.016357 
	C421.551300,1042.303711 449.587616,1050.175903 478.571655,1053.977539 
	C496.483978,1056.326904 514.483826,1058.007446 532.439331,1060.033447 
	C533.317993,1060.132690 534.147583,1060.667847 535.000000,1061.000000 
z"/>
<path fill="#FFFFFF" opacity="1.000000" stroke="none" 
	d="
M1264.000000,53.000004 
	C1264.000000,388.917389 1264.000000,724.834778 1264.000000,1061.000000 
	C1041.970703,1061.000000 819.941284,1061.000000 597.678589,1060.633057 
	C603.040771,1059.844604 608.650085,1059.554810 614.229065,1058.974365 
	C626.485901,1057.699097 638.843506,1056.924683 650.947388,1054.758301 
	C667.827454,1051.736938 684.610535,1048.023071 701.260803,1043.901245 
	C730.731384,1036.605591 759.216492,1026.253418 786.738647,1013.527893 
	C816.285400,999.866211 844.591919,983.917175 871.183472,964.999634 
	C894.043091,948.736938 915.620544,930.929138 935.813965,911.507874 
	C945.591370,902.104431 954.652100,891.921936 963.641968,881.743042 
	C972.575073,871.628418 981.776062,861.610962 989.494507,850.594482 
	C1002.267334,832.363770 1014.369629,813.625427 1025.982178,794.628845 
	C1042.729736,767.232178 1055.484009,737.894714 1066.134033,707.632507 
	C1077.300293,675.902893 1085.899170,643.528381 1090.030029,610.093628 
	C1092.286255,591.832642 1095.239868,573.538147 1095.696411,555.204407 
	C1096.281982,531.693604 1095.107666,508.104614 1093.839600,484.595276 
	C1093.116577,471.192322 1090.814453,457.865021 1089.016602,444.531525 
	C1085.353516,417.364594 1078.001831,391.073273 1069.986938,364.675476 
	C1075.649414,357.852448 1081.170654,351.345734 1086.672241,344.822571 
	C1094.080933,336.038025 1101.528076,327.285034 1108.860840,318.437439 
	C1117.742920,307.720581 1126.512085,296.910156 1135.350464,286.156891 
	C1142.943726,276.918365 1150.531250,267.674774 1158.185913,258.487183 
	C1164.174561,251.299088 1170.261963,244.193268 1176.518311,236.799377 
	C1193.613647,251.249329 1210.499756,265.522461 1228.004150,280.318176 
	C1229.157349,272.542877 1230.129272,265.497223 1231.258667,258.476898 
	C1233.458496,244.801712 1235.838013,231.154984 1237.970581,217.469589 
	C1239.830200,205.534592 1241.368530,193.549667 1243.203857,181.610626 
	C1245.035889,169.692368 1247.110229,157.811539 1248.985962,145.899765 
	C1250.787842,134.456833 1252.436768,122.989861 1254.215942,111.543266 
	C1256.444214,97.207375 1258.691162,82.874039 1261.026001,68.555260 
	C1261.875244,63.347000 1263.000610,58.183777 1264.000000,53.000004 
z"/>
<path fill="#EC4036" opacity="1.000000" stroke="none" 
	d="
M1264.000000,52.625004 
	C1263.000610,58.183777 1261.875244,63.347000 1261.026001,68.555260 
	C1258.691162,82.874039 1256.444214,97.207375 1254.215942,111.543266 
	C1252.436768,122.989861 1250.787842,134.456833 1248.985962,145.899765 
	C1247.110229,157.811539 1245.035889,169.692368 1243.203857,181.610626 
	C1241.368530,193.549667 1239.830200,205.534592 1237.970581,217.469589 
	C1235.838013,231.154984 1233.458496,244.801712 1231.258667,258.476898 
	C1230.129272,265.497223 1229.157349,272.542877 1228.004150,280.318176 
	C1210.499756,265.522461 1193.613647,251.249329 1176.518311,236.799377 
	C1170.261963,244.193268 1164.174561,251.299088 1158.185913,258.487183 
	C1150.531250,267.674774 1142.943726,276.918365 1135.350464,286.156891 
	C1126.512085,296.910156 1117.742920,307.720581 1108.860840,318.437439 
	C1101.528076,327.285034 1094.080933,336.038025 1086.672241,344.822571 
	C1081.170654,351.345734 1075.649414,357.852448 1069.698975,364.829651 
	C1058.040039,378.519470 1046.743774,391.683167 1035.617065,404.988586 
	C1021.104553,422.342682 1006.665283,439.758911 992.323608,457.254242 
	C987.325195,463.351746 982.710327,469.763641 977.920288,476.031952 
	C967.496094,488.616089 957.104675,501.227631 946.636414,513.775024 
	C939.272339,522.601624 931.738586,531.286987 924.397095,540.132202 
	C913.828186,552.865845 903.403748,565.719360 892.843994,578.460632 
	C885.509033,587.310852 878.010071,596.025085 870.656799,604.860413 
	C861.325500,616.072327 852.087891,627.362122 842.771240,638.586365 
	C835.747375,647.048340 828.634766,655.436707 821.612183,663.899780 
	C812.297302,675.125366 803.058350,686.414001 793.736206,697.633484 
	C786.601990,706.219666 779.358154,714.714783 772.219421,723.297302 
	C763.100952,734.260071 754.067932,745.294006 744.944885,756.252869 
	C736.132324,766.838501 727.252075,777.367676 718.082031,788.302673 
	C716.410400,787.061157 714.577026,785.993958 713.101990,784.558594 
	C697.731873,769.601868 682.473877,754.529724 667.076538,739.601196 
	C649.201965,722.270874 631.220947,705.050171 613.282104,687.786072 
	C604.672791,679.500610 596.091125,671.185913 587.431152,662.953613 
	C573.746155,649.944336 560.005737,636.993347 545.884399,623.635132 
	C538.868164,633.770569 531.923645,643.729248 525.054138,653.739502 
	C504.231995,684.081482 483.485413,714.475464 462.618286,744.786499 
	C448.850464,764.785217 434.850647,784.624207 421.088654,804.626770 
	C400.232178,834.940918 379.543945,865.370850 358.683868,895.682495 
	C345.659149,914.608643 332.397430,933.371521 319.343597,952.277832 
	C311.668365,963.394165 304.202454,974.654968 296.603973,985.824585 
	C296.068024,986.612427 295.214081,987.183960 294.251312,988.100525 
	C226.035202,879.945007 157.927475,771.961365 89.285522,663.130737 
	C107.951691,663.313171 125.082451,659.981018 141.437012,652.997681 
	C157.766541,646.024841 171.925522,635.930115 184.072571,622.204285 
	C222.317200,682.830933 260.133606,742.778687 298.259186,803.216553 
	C309.700562,786.512756 320.840363,770.216125 332.014343,753.942932 
	C352.755981,723.736084 373.493652,693.526428 394.279266,663.349854 
	C408.141113,643.225220 422.123779,623.183838 435.979584,603.055054 
	C456.754150,572.875244 477.423187,542.622742 498.220367,512.458496 
	C508.660614,497.315979 519.284668,482.300140 529.995789,466.983643 
	C535.468689,471.968109 541.186768,476.912842 546.608398,482.163696 
	C562.013855,497.083862 577.275085,512.152893 592.639465,527.115601 
	C601.438110,535.684265 610.324341,544.163025 619.176025,552.677124 
	C636.639221,569.474304 654.107483,586.266235 671.570374,603.063843 
	C680.421875,611.578125 689.219727,620.148865 698.136108,628.594666 
	C701.840210,632.103333 705.790466,635.352173 709.769226,638.842285 
	C718.872742,627.759705 727.985229,616.589722 737.184204,605.491333 
	C744.413757,596.768921 751.798706,588.175293 759.027405,579.452148 
	C769.903870,566.327087 780.669739,553.110474 791.547913,539.986816 
	C800.135254,529.627014 808.855591,519.377502 817.454224,509.026917 
	C828.558716,495.660034 839.555054,482.203217 850.682983,468.855927 
	C861.299438,456.122009 872.094788,443.536926 882.685669,430.781921 
	C896.716370,413.884155 910.582458,396.849701 924.605469,379.945526 
	C930.585144,372.737183 936.782837,365.709747 943.304565,358.129272 
	C945.099731,356.010742 946.473328,354.364288 947.843689,352.715118 
	C957.255066,341.388916 966.653931,330.052277 976.079773,318.738129 
	C986.564758,306.152710 997.145691,293.646423 1007.542847,280.989044 
	C1012.864136,274.510986 1017.875244,267.778198 1023.336365,261.006805 
	C1025.443237,258.723663 1027.244019,256.597534 1029.036499,254.464401 
	C1037.902832,243.913345 1046.799561,233.387650 1055.622681,222.800690 
	C1065.169312,211.345642 1074.659790,199.843689 1084.148438,188.340546 
	C1088.908691,182.569794 1093.610596,176.751007 1098.326416,170.969299 
	C1081.154053,156.500168 1064.417603,142.398361 1047.060059,127.773132 
	C1060.039185,123.106430 1072.049194,118.802475 1084.049316,114.470833 
	C1120.048706,101.476067 1156.049805,88.485764 1192.038696,75.461800 
	C1206.831787,70.108406 1221.565186,64.588516 1236.383545,59.306992 
	C1245.532593,56.046146 1254.790771,53.091892 1264.000000,49.999996 
	C1264.000000,50.750000 1264.000000,51.500000 1264.000000,52.625004 
z"/>
<path fill="#F9AE41" opacity="1.000000" stroke="none" 
	d="
M1023.026489,261.160522 
	C1017.875244,267.778198 1012.864136,274.510986 1007.542847,280.989044 
	C997.145691,293.646423 986.564758,306.152710 976.079773,318.738129 
	C966.653931,330.052277 957.255066,341.388916 947.843689,352.715118 
	C946.473328,354.364288 945.099731,356.010742 943.440308,357.812622 
	C934.537476,341.921753 926.817078,325.307098 917.065369,309.985321 
	C906.435913,293.284576 894.827637,277.009216 881.976074,261.976044 
	C869.185425,247.014008 854.992065,233.059814 840.179932,220.070694 
	C825.155823,206.895569 809.162231,194.647491 792.628662,183.412842 
	C765.660461,165.087738 736.368896,151.065704 705.666138,139.959579 
	C684.222107,132.202591 662.276855,126.267319 639.903076,122.273964 
	C624.732117,119.566193 609.258240,118.403732 593.873352,117.098900 
	C583.647034,116.231590 573.340881,116.185654 563.066589,116.030022 
	C540.412598,115.686844 518.010620,118.082397 495.673859,121.846802 
	C473.174164,125.638664 451.106262,131.031830 429.711609,138.819458 
	C415.260925,144.079498 401.102264,150.220779 387.078094,156.554810 
	C366.707275,165.755325 347.362030,176.912094 329.277374,190.038376 
	C316.928131,199.001755 305.063324,208.656708 293.269165,218.351898 
	C285.869568,224.434601 278.647156,230.817947 271.958588,237.665512 
	C245.987793,264.253845 223.407913,293.415314 204.951935,325.797119 
	C189.771790,352.431396 177.775055,380.353119 168.772903,409.597778 
	C165.940994,418.797516 163.520889,428.123993 160.790588,437.825012 
	C124.570732,415.056244 86.514107,410.890930 45.991524,426.350128 
	C51.562805,398.776825 59.060047,372.649780 68.420494,346.999176 
	C76.941772,323.648163 87.326828,301.163269 99.000298,279.279358 
	C111.363052,256.103241 125.057480,233.678925 141.513962,213.167542 
	C154.603226,196.853043 167.922867,180.623093 182.350357,165.510941 
	C196.569412,150.617126 211.631668,136.346542 227.562759,123.317207 
	C245.563873,108.594887 264.426758,94.771149 283.862915,81.999374 
	C306.225250,67.304794 330.076019,55.116009 354.749054,44.528488 
	C383.861694,32.035873 413.656097,21.717705 444.563568,14.842165 
	C460.199402,11.363882 475.989777,8.397294 491.843903,6.136641 
	C506.655212,4.024687 521.643250,3.152233 536.776733,1.367113 
	C555.354248,1.000000 573.708435,1.000000 592.754578,1.367115 
	C605.586243,2.816789 617.808960,3.336693 629.846985,5.110060 
	C649.270447,7.971423 668.698425,11.062399 687.898193,15.125679 
	C723.430420,22.645409 757.466675,34.953419 790.337036,50.239834 
	C817.463013,62.854809 843.322266,77.790062 867.965698,94.885727 
	C893.223328,112.407402 916.658752,132.081665 938.675781,153.408875 
	C949.585632,163.976929 959.673584,175.468567 969.434631,187.127365 
	C980.070679,199.831406 990.239441,212.964874 999.971741,226.375702 
	C1008.134583,237.623825 1015.376709,249.540100 1023.026489,261.160522 
z"/>
<path fill="#F9AE41" opacity="1.000000" stroke="none" 
	d="
M977.952881,476.475342 
	C982.710327,469.763641 987.325195,463.351746 992.323608,457.254242 
	C1006.665283,439.758911 1021.104553,422.342682 1035.617065,404.988586 
	C1046.743774,391.683167 1058.040039,378.519470 1069.548950,365.138611 
	C1078.001831,391.073273 1085.353516,417.364594 1089.016602,444.531525 
	C1090.814453,457.865021 1093.116577,471.192322 1093.839600,484.595276 
	C1095.107666,508.104614 1096.281982,531.693604 1095.696411,555.204407 
	C1095.239868,573.538147 1092.286255,591.832642 1090.030029,610.093628 
	C1085.899170,643.528381 1077.300293,675.902893 1066.134033,707.632507 
	C1055.484009,737.894714 1042.729736,767.232178 1025.982178,794.628845 
	C1014.369629,813.625427 1002.267334,832.363770 989.494507,850.594482 
	C981.776062,861.610962 972.575073,871.628418 963.641968,881.743042 
	C954.652100,891.921936 945.591370,902.104431 935.813965,911.507874 
	C915.620544,930.929138 894.043091,948.736938 871.183472,964.999634 
	C844.591919,983.917175 816.285400,999.866211 786.738647,1013.527893 
	C759.216492,1026.253418 730.731384,1036.605591 701.260803,1043.901245 
	C684.610535,1048.023071 667.827454,1051.736938 650.947388,1054.758301 
	C638.843506,1056.924683 626.485901,1057.699097 614.229065,1058.974365 
	C608.650085,1059.554810 603.040771,1059.844604 597.222656,1060.633057 
	C576.645752,1061.000000 556.291565,1061.000000 535.468628,1061.000000 
	C534.147583,1060.667847 533.317993,1060.132690 532.439331,1060.033447 
	C514.483826,1058.007446 496.483978,1056.326904 478.571655,1053.977539 
	C449.587616,1050.175903 421.551300,1042.303711 393.912354,1033.016357 
	C370.108795,1025.017822 347.089661,1015.121033 324.869354,1003.399170 
	C323.876801,1002.875610 322.971130,1002.187256 321.571198,1001.282349 
	C343.484650,969.558594 365.257507,938.038391 387.211487,906.256042 
	C396.544586,910.191589 405.761566,914.349548 415.176941,917.995239 
	C439.175720,927.287659 463.658600,935.024780 489.162964,938.963623 
	C506.014404,941.566101 522.943176,943.669067 539.841797,945.962463 
	C540.988098,946.117981 542.172241,945.999084 543.338806,945.999207 
	C556.050415,946.000427 568.762695,946.088074 581.473389,945.979187 
	C600.117859,945.819519 618.490784,943.259583 636.875366,940.232910 
	C660.395020,936.360779 683.196106,930.078430 705.603333,922.147095 
	C744.234741,908.472961 780.093750,889.543518 812.680237,864.688660 
	C825.101074,855.214905 837.010681,845.026367 848.722107,834.675598 
	C879.486572,807.485413 904.059937,775.181946 924.898376,740.022766 
	C940.668030,713.415833 952.971802,685.171997 962.144653,655.602722 
	C968.259766,635.890015 973.400330,615.939941 976.010132,595.429260 
	C977.523438,583.535950 979.257446,571.626892 979.866577,559.672668 
	C980.736694,542.594788 981.092590,525.462830 980.841614,508.366058 
	C980.687561,497.871918 978.989990,487.400391 977.952881,476.475342 
z"/>
<path fill="#FFFFFF" opacity="1.000000" stroke="none" 
	d="
M1023.336365,261.006775 
	C1015.376709,249.540100 1008.134583,237.623825 999.971741,226.375702 
	C990.239441,212.964874 980.070679,199.831406 969.434631,187.127365 
	C959.673584,175.468567 949.585632,163.976929 938.675781,153.408875 
	C916.658752,132.081665 893.223328,112.407402 867.965698,94.885727 
	C843.322266,77.790062 817.463013,62.854809 790.337036,50.239834 
	C757.466675,34.953419 723.430420,22.645409 687.898193,15.125679 
	C668.698425,11.062399 649.270447,7.971423 629.846985,5.110060 
	C617.808960,3.336693 605.586243,2.816789 593.223267,1.367115 
	C816.666687,1.000000 1040.333374,1.000000 1264.000000,1.000000 
	C1264.000000,17.082142 1264.000000,33.072411 1264.000000,49.531338 
	C1254.790771,53.091892 1245.532593,56.046146 1236.383545,59.306992 
	C1221.565186,64.588516 1206.831787,70.108406 1192.038696,75.461800 
	C1156.049805,88.485764 1120.048706,101.476067 1084.049316,114.470833 
	C1072.049194,118.802475 1060.039185,123.106430 1047.060059,127.773132 
	C1064.417603,142.398361 1081.154053,156.500168 1098.326416,170.969299 
	C1093.610596,176.751007 1088.908691,182.569794 1084.148438,188.340546 
	C1074.659790,199.843689 1065.169312,211.345642 1055.622681,222.800690 
	C1046.799561,233.387650 1037.902832,243.913345 1029.036499,254.464401 
	C1027.244019,256.597534 1025.443237,258.723663 1023.336365,261.006775 
z"/>
<path fill="#272661" opacity="1.000000" stroke="none" 
	d="
M1.000002,530.468384 
	C2.313252,524.766541 3.703452,519.551025 4.924708,514.296204 
	C8.055175,500.826385 15.131810,489.623169 24.105864,479.289368 
	C37.259731,464.142426 53.725422,454.418182 73.120094,450.622864 
	C91.821388,446.963257 110.461281,448.005249 128.477142,455.693787 
	C140.246872,460.716705 150.543869,467.689606 159.197784,476.852936 
	C172.209000,490.630127 180.269669,506.997864 183.043976,525.920288 
	C185.796463,544.694031 183.618332,562.793823 175.484116,579.890869 
	C169.001038,593.517517 159.519043,604.937317 147.302826,613.961975 
	C135.241318,622.872314 121.680176,628.447632 107.000046,630.860413 
	C90.403015,633.588135 74.223534,631.381775 58.520039,625.194031 
	C46.186543,620.334167 35.254639,613.381958 26.308424,603.692871 
	C12.396880,588.626221 3.414938,571.119080 1.385960,550.163208 
	C1.000000,543.645569 1.000000,537.291199 1.000002,530.468384 
z"/>
</svg>